<?xml version="1.0" standalone="no"?>
<!DOCTYPE svg PUBLIC "-//W3C//DTD SVG 20010904//EN"
 "http://www.w3.org/TR/2001/REC-SVG-20010904/DTD/svg10.dtd">
<svg version="1.0" xmlns="http://www.w3.org/2000/svg"
 width="500.000000pt" height="500.000000pt" viewBox="0 0 500.000000 500.000000"
 preserveAspectRatio="xMidYMid meet">

<g transform="translate(0.000000,500.000000) scale(0.100000,-0.100000)"
fill="#000000" stroke="none">
<path d="M2026 3204 c17 -7 38 -23 46 -36 8 -13 63 -130 123 -260 59 -131 109
-238 111 -238 2 0 11 11 20 24 15 24 12 32 -86 250 -56 124 -100 232 -97 240
4 9 21 19 39 24 25 7 6 9 -77 9 -99 0 -107 -2 -79 -13z"/>
<path d="M2550 3206 c33 -8 46 -16 48 -31 1 -11 -34 -110 -78 -219 -70 -172
-87 -226 -65 -204 3 3 42 95 86 204 45 110 90 208 100 219 11 11 34 25 52 31
27 10 15 11 -78 11 -101 0 -106 0 -65 -11z"/>
<path d="M2502 2584 c-184 -261 -331 -478 -328 -481 3 -4 8 -4 10 -2 18 21
666 948 666 953 0 3 -3 6 -7 6 -5 0 -158 -214 -341 -476z"/>
<path d="M2793 2670 c38 -24 47 -35 41 -48 -4 -9 -7 -41 -5 -70 3 -66 -27
-133 -67 -152 -15 -7 -57 -15 -94 -18 l-68 -5 0 74 0 74 -30 -45 -30 -45 0
-181 c0 -202 0 -201 -68 -215 -23 -4 12 -7 93 -7 101 0 121 2 90 9 -21 5 -43
15 -47 22 -4 6 -8 76 -8 154 l0 141 56 4 56 3 70 -99 c39 -54 100 -129 136
-167 l64 -69 72 1 71 0 -51 20 c-63 24 -139 98 -241 233 -67 89 -73 100 -56
109 64 34 105 100 105 169 0 72 -33 110 -112 132 -16 5 -7 -5 23 -24z"/>
</g>
</svg>
